# xmcd
#
# Track frame offsets: 
#        150
#        12237
#        24872
#        35865
#        48280
#        60755
#        72762
#        83692
#        94825
#        108082
#        120500
#        133365
#        146120
#        159867
#        173800
#
# Disc length: 2511 seconds
#
# Revision: 3
# Processed by: cddbd v1.5.2PL0 Copyright (c) Steve Scherf et al.
# Submitted via: ExactAudioCopy v0.99pb5
#
DISCID=b909cd0f
DTITLE=Various Artist - Classis Country Vol. 20 1941-1951 Disc 1
DYEAR=2000
DGENRE=Country
TTITLE0=Bob Wills - Take Me Back To Tulsa
TTITLE1=Jack Guthrie - Oklahoma Hills
TTITLE2=Hank Thompson - Humpty Dumpty Heart
TTITLE3=Jimmy Wakely - I Love You So Much It Hurts
TTITLE4=Sons Of The Pioneers - Cool Water
TTITLE5=Gene Autry - Buttons And Bows
TTITLE6=Jimmie Davis - There's A New Moon Over My Shoulder
TTITLE7=Eddy Arnold - It's A Sin
TTITLE8=Hank Williams - Mind Your Own Business
TTITLE9=Lefty Frizzell - I Love You A Thousand Ways
TTITLE10=Carl Smith - Let Old Mother Nature Have Her Way
TTITLE11=Albert Dexter - I'm Losing My Mind Over You
TTITLE12=Moon Mullican - I'll Sail My Ship Alone
TTITLE13=Wesley Tuttle - Detour
TTITLE14=T. Texas Tyler - Deck Of Cards
EXTD=
EXTT0=
EXTT1=
EXTT2=
EXTT3=
EXTT4=
EXTT5=
EXTT6=
EXTT7=
EXTT8=
EXTT9=
EXTT10=
EXTT11=
EXTT12=
EXTT13=
EXTT14=
PLAYORDER=
